<?xml version="1.0" encoding="utf-8"?>
<!-- Generator: Adobe Illustrator 19.0.0, SVG Export Plug-In . SVG Version: 6.00 Build 0)  -->
<svg version="1.1" id="Layer_1" xmlns="http://www.w3.org/2000/svg" xmlns:xlink="http://www.w3.org/1999/xlink" x="0px" y="0px"
	 viewBox="0 0 512 512" style="enable-background:new 0 0 512 512;" xml:space="preserve">
<g id="XMLID_1_">
	<path id="XMLID_3_" d="M511.9,498.7c-9.3-42.8-64.2-63.2-83.7-69.8c-20.5-7.4-50.2-9.3-69.8-13c-11.2-2.8-27-8.4-32.6-14.9
		c-5.6-6.5-1.9-66-1.9-66s10.2-14.9,14.9-28.8c5.6-13,11.2-50.2,11.2-50.2s11.2,0,14.9-19.5c3.7-20.5,10.2-28.8,10.2-44.6
		c-0.9-14.9-9.3-14.9-9.3-14.9s8.4-22.3,9.3-67.9C377,54.2,334.2,0.2,256.1,0.2c-79.1,0-120.9,53.9-119,108.8
		c0.9,46.5,9.3,67.9,9.3,67.9s-8.4,0-9.3,14.9c-0.9,15.8,5.6,23.3,10.2,44.6C151,256,162.2,256,162.2,256s5.6,37.2,11.2,50.2
		c5.6,14,14.9,28.8,14.9,28.8s2.8,59.5-1.9,66c-4.7,6.5-21.4,12.1-32.6,14.9c-18.6,4.7-48.4,5.6-69.8,13
		c-18.6,6.5-73.5,27-83.7,69.8c-1.9,6.5,3.7,13,10.2,13h490.1C508.2,511.8,512.8,505.2,511.9,498.7z"/>
</g>
</svg>
